HIERARCHY
ROOT Hips
{
 OFFSET 0.000000 0.000000 0.000000
 CHANNELS 6 Xposition Yposition Zposition Yrotation Xrotation Zrotation
 JOINT Chest
 {
  OFFSET 0.000000 9.585900 0.002600
  CHANNELS 3 Yrotation Xrotation Zrotation
  JOINT Chest2
  {
   OFFSET 0.000000 9.601200 -0.005300
   CHANNELS 3 Yrotation Xrotation Zrotation
   JOINT Chest3
   {
    OFFSET 0.000000 9.561800 0.000000
    CHANNELS 3 Yrotation Xrotation Zrotation
    JOINT Chest4
    {
     OFFSET 0.000000 9.552100 0.000000
     CHANNELS 3 Yrotation Xrotation Zrotation
     JOINT Neck
     {
      OFFSET 0.000000 14.453000 0.000000
      CHANNELS 3 Yrotation Xrotation Zrotation
      JOINT Head
      {
       OFFSET 0.000000 8.936500 -0.011300
       CHANNELS 3 Yrotation Xrotation Zrotation
       End Site
       {
        OFFSET 0.000000 17.073600 -0.006000
       }
      }
     }
     JOINT RightCollar
     {
      OFFSET -2.921100 9.558500 0.000000
      CHANNELS 3 Yrotation Xrotation Zrotation
      JOINT RightShoulder
      {
       OFFSET -13.519700 0.000000 0.000000
       CHANNELS 3 Yrotation Xrotation Zrotation
       JOINT RightElbow
       {
        OFFSET 0.000000 -29.696600 0.000000
        CHANNELS 3 Yrotation Xrotation Zrotation
        JOINT RightWrist
        {
         OFFSET 0.000000 -24.004700 0.000000
         CHANNELS 3 Yrotation Xrotation Zrotation
         End Site
         {
          OFFSET 0.000000 -17.728500 0.000000
         }
        }
       }
      }
     }
     JOINT LeftCollar
     {
      OFFSET 2.921100 9.558500 0.000000
      CHANNELS 3 Yrotation Xrotation Zrotation
      JOINT LeftShoulder
      {
       OFFSET 13.519700 0.000000 0.000000
       CHANNELS 3 Yrotation Xrotation Zrotation
       JOINT LeftElbow
       {
        OFFSET 0.000000 -29.696600 0.000000
        CHANNELS 3 Yrotation Xrotation Zrotation
        JOINT LeftWrist
        {
         OFFSET 0.000000 -24.004700 0.000000
         CHANNELS 3 Yrotation Xrotation Zrotation
         End Site
         {
          OFFSET 0.000000 -17.728500 0.000000
         }
        }
       }
      }
     }
    }
   }
  }
 }
 JOINT RightHip
 {
  OFFSET -7.771700 -0.012900 -0.001300
  CHANNELS 3 Yrotation Xrotation Zrotation
  JOINT RightKnee
  {
   OFFSET 0.000000 -40.869800 0.001200
   CHANNELS 3 Yrotation Xrotation Zrotation
   JOINT RightAnkle
   {
    OFFSET 0.000000 -39.717900 0.002100
    CHANNELS 3 Yrotation Xrotation Zrotation
    JOINT RightToe
    {
     OFFSET 0.000000 -4.965400 11.033500
     CHANNELS 3 Yrotation Xrotation Zrotation
     End Site
     {
      OFFSET 0.000000 -1.423100 5.872300
     }
    }
   }
  }
 }
 JOINT LeftHip
 {
  OFFSET 7.771700 -0.012900 -0.001300
  CHANNELS 3 Yrotation Xrotation Zrotation
  JOINT LeftKnee
  {
   OFFSET 0.000000 -40.869800 0.001200
   CHANNELS 3 Yrotation Xrotation Zrotation
   JOINT LeftAnkle
   {
    OFFSET 0.000000 -39.717900 0.002100
    CHANNELS 3 Yrotation Xrotation Zrotation
    JOINT LeftToe
    {
     OFFSET 0.000000 -4.965400 11.033500
     CHANNELS 3 Yrotation Xrotation Zrotation
     End Site
     {
      OFFSET 0.000000 -1.423100 5.872300
     }
    }
   }
  }
 }
}
MOTION
Frames: 8
Frame Time: 0.008333
25.208527 48.738412 60.900743 171.235451 -35.368604 -7.803961 6.945665 18.552991 6.122709 0.753481 2.379379 0.621213 1.215927 3.920053 1.042600 5.805570 15.977985 4.951993 -1.985481 16.321108 1.818358 -4.254175 -5.491685 4.025787 -1.445181 -2.040441 -3.092850 1.879979 -3.918140 -3.632696 96.119996 -80.750159 -104.196729 2.232373 -5.944903 15.344239 -8.250858 0.533923 -0.172867 4.102083 -4.398440 -2.400077 -108.475064 -76.105006 115.976265 14.643188 -1.392577 -8.579870 2.321042 -44.449362 12.069478 -110.558653 83.922414 -97.841350 -1.653636 -12.767824 -2.967157 0.124035 0.170737 0.302151 -7.149352 -49.742094 18.424323 -154.255723 79.765927 -161.243255 -0.354113 -18.154610 8.517056 -0.016457 -0.048776 0.017982
25.224774 48.737304 60.916009 171.180559 -35.343807 -7.811204 6.954795 18.542853 6.150594 0.753003 2.384358 0.622098 1.217747 3.924849 1.042351 5.755658 16.026409 4.962211 -1.946710 16.307400 1.789881 -4.220589 -5.431070 3.993330 -1.401524 -2.055514 -3.120491 1.845781 -3.913405 -3.628371 96.031377 -80.766234 -104.102293 2.240876 -5.855423 15.396923 -8.222830 0.523979 -0.188474 4.112620 -4.402841 -2.405269 -108.454487 -76.076713 116.038743 14.531407 -1.141490 -9.030785 2.197220 -44.499655 12.167842 -110.593831 83.990774 -97.844193 -1.640447 -12.635667 -3.220143 0.129653 0.071286 0.350602 -7.180195 -49.779167 18.506372 -154.466968 79.771687 -161.436924 -0.379332 -18.135846 8.496545 -0.023083 -0.059927 0.005482
25.238727 48.747420 60.927673 171.151139 -35.322142 -7.817261 6.944915 18.542737 6.165986 0.751258 2.387009 0.621814 1.209109 3.933805 1.042469 5.736163 16.039878 4.956447 -1.919915 16.303929 1.774882 -4.189152 -5.422415 3.971098 -1.383761 -2.044377 -3.129223 1.824703 -3.915715 -3.621060 95.852165 -80.777214 -103.925240 2.253743 -5.746679 15.424125 -8.208275 0.525944 -0.191314 4.091872 -4.333718 -2.369427 -108.776331 -76.100089 116.446580 14.430186 -0.884482 -9.499356 2.152879 -44.580882 12.163180 -110.842694 83.929320 -98.023182 -1.508717 -12.496028 -3.352250 0.096729 -0.017294 0.315048 -7.220757 -49.802209 18.562870 -154.723172 79.789021 -161.673000 -0.418105 -18.112786 8.459206 -0.007422 -0.068582 0.005565
25.249251 48.773023 60.934824 171.156984 -35.307190 -7.822612 6.905050 18.553344 6.160208 0.749393 2.389282 0.621733 1.213626 3.936806 1.042195 5.739484 16.032672 4.947990 -1.925590 16.323994 1.775874 -4.158811 -5.416978 3.949679 -1.402709 -2.010685 -3.121820 1.799977 -3.909355 -3.613698 95.713073 -80.770955 -103.776408 2.274369 -5.624096 15.393044 -8.233918 0.551324 -0.182334 4.132330 -4.320672 -2.352298 -108.990084 -76.144810 116.671077 14.365991 -0.643121 -9.936830 2.179159 -44.671822 12.052250 -111.269312 83.775075 -98.342414 -1.293097 -12.383432 -3.381321 0.033415 -0.072236 0.219078 -7.271287 -49.804925 18.597207 -154.718206 79.803237 -161.679945 -0.408576 -18.072519 8.451726 -0.009090 -0.097193 -0.004759
25.264811 48.817242 60.939925 171.195884 -35.296190 -7.879562 6.861167 18.565860 6.193388 0.732723 2.409928 0.627292 1.228200 3.924029 1.037253 5.705984 16.053228 4.944999 -1.901414 16.319277 1.762282 -4.131148 -5.412568 3.927580 -1.366389 -2.029402 -3.138171 1.760096 -3.869812 -3.597951 95.614693 -80.740337 -103.665279 2.309454 -5.498037 15.283810 -8.228601 0.543190 -0.187586 4.188060 -4.309809 -2.322501 -109.238822 -76.186583 116.918871 14.362992 -0.443528 -10.306755 2.194253 -44.758839 11.941646 -111.778461 83.587539 -98.720753 -1.032874 -12.330256 -3.348276 -0.059900 -0.064500 0.092502 -7.361180 -49.786189 18.662534 -154.663119 79.828623 -161.624748 -0.377615 -18.014310 8.441934 -0.026924 -0.146964 -0.018245
25.288940 48.881019 60.942778 171.250277 -35.298927 -7.997751 6.831148 18.587450 6.287171 0.727460 2.421748 0.631182 1.228304 3.922670 1.035102 5.682858 16.063948 4.940899 -1.889158 16.325080 1.753009 -4.106639 -5.407807 3.905596 -1.368875 -2.014222 -3.142644 1.760730 -3.853988 -3.590423 95.532659 -80.687034 -103.584014 2.365488 -5.378070 15.097170 -8.236491 0.535518 -0.195235 4.247084 -4.303714 -2.280234 -109.522805 -76.294927 117.169918 14.333222 -0.340342 -10.561650 2.139248 -44.823168 11.919574 -112.273777 83.420749 -99.100732 -0.755926 -12.333936 -3.279237 -0.196975 0.009779 -0.050137 -7.519928 -49.736589 18.801013 -154.527501 79.850440 -161.478845 -0.311693 -17.938431 8.418327 -0.055938 -0.225278 -0.037892
25.313145 48.958759 60.943599 171.330108 -35.298426 -8.129535 6.785070 18.612433 6.384221 0.731340 2.410865 0.626128 1.216296 3.942128 1.041593 5.688785 16.042919 4.926677 -1.902563 16.362287 1.760901 -4.085191 -5.402982 3.884387 -1.401097 -1.974835 -3.129831 1.780140 -3.849669 -3.589809 95.610512 -80.647641 -103.664407 2.470550 -5.224902 14.840605 -8.263826 0.547490 -0.195149 4.285503 -4.299671 -2.227139 -109.710952 -76.404104 117.323557 14.311788 -0.324316 -10.708633 2.016887 -44.874451 11.956892 -112.802787 83.360128 -99.571193 -0.619718 -12.344562 -3.190356 -0.316549 0.097998 -0.171430 -7.798069 -49.669581 19.023035 -154.296416 79.868251 -161.314334 -0.249198 -17.826553 8.421234 -0.084807 -0.333793 -0.069738
25.340065 49.044385 60.944623 171.401681 -35.287171 -8.269192 6.744365 18.625523 6.491459 0.738024 2.399805 0.621481 1.206488 3.962100 1.049538 5.665883 16.058684 4.921745 -1.879968 16.340764 1.744118 -4.075914 -5.386856 3.872032 -1.388060 -1.988873 -3.139159 1.801206 -3.863200 -3.597200 95.451516 -80.620164 -103.518998 2.578972 -5.072313 14.555022 -8.269992 0.531255 -0.213673 4.313920 -4.315339 -2.164297 -109.835356 -76.507506 117.424690 14.281060 -0.350953 -10.735365 1.845344 -44.922850 12.064723 -113.195611 83.302543 -99.943301 -0.512750 -12.366919 -3.109056 -0.412598 0.200745 -0.264655 -8.064854 -49.610435 19.255577 -154.032333 79.887804 -161.105960 -0.174139 -17.713239 8.413755 -0.129767 -0.446244 -0.087547
